<?xml version="1.0" encoding="UTF-8" standalone="no"?>
<!-- Created with Inkscape (http://www.inkscape.org/) -->

<svg
   width="212.5977mm"
   height="174.40976mm"
   viewBox="0 0 212.5977 174.40976"
   version="1.1"
   id="svg5"
   xmlns="http://www.w3.org/2000/svg"
   xmlns:svg="http://www.w3.org/2000/svg">
  <defs
     id="defs2">
    <rect
       x="79.887352"
       y="266.29117"
       width="235.56526"
       height="335.93655"
       id="rect2101" />
  </defs>
  <g
     id="layer3"
     transform="translate(-0.01280177,-63.501097)" />
  <g
     id="layer2"
     transform="translate(-0.01280177,-63.501097)" />
  <g
     id="layer1"
     transform="translate(-0.01280177,-63.501097)">
    <text
       xml:space="preserve"
       transform="scale(0.26458333)"
       id="text2099"
       style="font-style:normal;font-weight:normal;font-size:40px;line-height:1.25;font-family:sans-serif;white-space:pre;shape-inside:url(#rect2101);fill:#000000;fill-opacity:1;stroke:none" />
    <g
       id="g678"
       transform="matrix(1.6744417,0,0,1.6744417,-75.331013,-49.18028)">
      <circle
         style="fill:#ffffff;stroke-width:0.223424"
         id="path5809"
         cx="96.483604"
         cy="119.96761"
         r="51.487225" />
      <ellipse
         style="fill:#0000ff;stroke-width:0.274504"
         id="path523"
         cx="176.10342"
         cy="-45.472702"
         rx="17.924652"
         ry="28.95001"
         transform="matrix(0.61437507,0.78901412,-0.80186795,0.59750132,0,0)" />
      <path
         style="fill:#000000;fill-opacity:1;fill-rule:nonzero;stroke:none;stroke-width:0.264583"
         id="path5598"
         d="m 64.585177,94.84376 c -2.157103,0.513061 -4.517874,0.929428 -6.722875,0.42559 -0.493024,-0.112654 -0.952182,-0.34117 -1.428273,-0.511754 -3.544311,-1.814897 -4.138742,-3.725368 -5.292503,-7.326244 -0.543449,-2.37998 -1.435658,-4.873948 -1.12272,-7.360526 0.13121,-1.042569 0.581933,-2.115089 0.937948,-3.091452 0.494178,-1.213186 1.233366,-2.2019 2.291832,-2.974311 0.288433,-0.210484 1.203132,-0.768279 0.913566,-0.559353 -2.410412,1.739154 -3.286818,1.691248 -1.173776,1.400633 2.947019,-0.228055 5.258438,1.502082 7.423052,3.275406 2.823919,2.326823 4.884616,5.432655 6.470766,8.697481 1.303073,2.871108 1.645497,6.012389 1.82802,9.123572 0.139647,1.974109 0.130479,3.91415 -0.803238,5.696398 -0.465786,0.53748 -0.890649,1.11501 -1.45999,1.5518 -0.161906,0.12421 -0.689422,0.43661 -0.512844,0.33432 3.547663,-2.05513 3.745108,-2.13293 2.205,-1.36896 -1.376203,0.62562 -2.800445,1.1366 -4.271576,1.48431 -1.21158,0.17187 -2.036895,-0.65481 -3.005748,-1.23477 -1.012513,-0.54459 -2.066063,-0.9597 -2.830251,-1.84153 -0.803627,-1.148922 -0.869752,-2.572246 -0.962464,-3.925732 0,0 -3.482134,1.805371 -3.482134,1.805371 v 0 c 0.105204,1.438269 0.212307,2.933171 1.064112,4.151981 0.773044,0.94481 1.819754,1.41922 2.900368,1.95118 1.023382,0.61908 1.922192,1.50364 3.188962,1.4725 1.492263,-0.31602 2.925609,-0.8124 4.327334,-1.41251 2.441499,-1.15755 4.947894,-2.26416 6.412164,-4.59166 0.818631,-1.869701 0.840579,-3.840955 0.67074,-5.853976 -0.225354,-3.147277 -0.610981,-6.332281 -1.948664,-9.227818 -1.611318,-3.305354 -3.696962,-6.470612 -6.540987,-8.845311 -2.186696,-1.832211 -4.546732,-3.685215 -7.551404,-3.560104 -2.736953,0.202822 -1.134181,-0.06715 -5.576408,2.333339 -1.484646,0.802273 -2.447809,2.218436 -3.059719,3.74691 -0.368418,1.091092 -0.75334,2.038893 -0.870324,3.202747 -0.253906,2.526062 0.653693,5.031933 1.201709,7.450796 0.282258,0.907241 0.80268,2.710583 1.230263,3.600911 0.876734,1.825574 2.440265,3.12938 4.206676,4.04342 0.49548,0.193437 0.971397,0.447458 1.48644,0.580306 2.198328,0.567028 4.541345,0.162679 6.729809,-0.213501 0,0 3.127137,-2.429459 3.127137,-2.429459 z" />
      <path
         style="fill:#000000;fill-opacity:1;fill-rule:nonzero;stroke:none;stroke-width:0.264583"
         id="path5600"
         d="m 60.570009,89.277778 c 0.01341,2.129412 0.278151,4.238549 -0.546796,6.248821 -0.41914,0.70263 -1.070314,1.134515 -1.719318,1.596014 0,0 3.646622,-1.451067 3.646622,-1.451067 v 0 c 0.650573,-0.518195 1.262893,-1.016376 1.620737,-1.795939 0.699709,-2.06565 0.441502,-4.237289 0.512019,-6.387925 0,0 -3.513264,1.790096 -3.513264,1.790096 z" />
      <path
         style="fill:#000000;fill-opacity:1;fill-rule:nonzero;stroke:none;stroke-width:0.264583"
         id="path5602"
         d="m 56.844572,74.870576 c 3.64122,-0.04345 7.282797,-0.05121 10.924225,-0.06596 5.178235,-0.0066 10.356482,0.0048 15.534711,0.01315 4.301083,0.0037 8.602128,-0.0016 12.903198,0.01125 3.20363,0.0063 6.407234,0.0163 9.610864,0.0074 3.96813,0.05481 7.9231,-0.292883 11.86537,-0.702371 4.79276,-0.406482 8.90937,-2.429489 12.78272,-5.25132 0.7359,-0.595916 1.52209,-1.112081 2.3383,-1.587831 0,0 -3.65904,1.413629 -3.65904,1.413629 v 0 c -0.78748,0.496718 -1.55068,1.025658 -2.28605,1.597983 -0.3404,0.23613 -1.40101,0.873887 -1.02121,0.708387 0.73895,-0.322008 1.46495,-0.698285 2.10934,-1.182549 0.41268,-0.310132 -0.92507,0.461055 -1.40438,0.652761 -1.86164,0.744601 -3.82058,1.21502 -5.81791,1.390909 -3.92088,0.400363 -7.85452,0.778571 -11.801,0.703662 -3.2104,-0.009 -6.42079,0.0011 -9.63119,0.0074 -4.311399,0.01278 -8.622771,0.0076 -12.934177,0.01125 -5.190297,0.0083 -10.38061,0.01968 -15.570912,0.01315 -3.5809,-0.01469 -7.161961,-0.02209 -10.742644,-0.06596 0,0 -3.200215,2.325092 -3.200215,2.325092 z" />
      <path
         style="fill:#000000;fill-opacity:1;fill-rule:nonzero;stroke:none;stroke-width:0.264583"
         id="path5604"
         d="m 128.15244,70.881932 c 1.74647,3.363648 3.39999,6.768071 4.71301,10.324854 1.20638,3.617465 2.22284,7.312207 2.95917,11.055188 0.59285,3.896265 0.63892,7.847246 0.68437,11.779876 0.0247,3.46786 0.002,6.93587 -0.007,10.40376 0.0142,3.93417 0.0156,7.86831 -5.3e-4,11.80248 -0.01,3.70545 0.004,7.41088 0.002,11.11632 -0.004,3.2367 0.0403,6.46931 -0.18174,9.69966 -0.29062,2.45694 -0.63051,4.9043 -0.81267,7.37246 -0.36463,1.93905 -0.82973,3.8453 -1.03467,5.81022 -0.13683,1.79836 -0.32576,3.61287 -0.92743,5.32168 0,0 3.55414,-1.67254 3.55414,-1.67254 v 0 c 0.5222,-1.74971 0.73524,-3.56732 0.87326,-5.38414 0.22968,-1.96111 0.70544,-3.87125 1.01908,-5.81891 0.17584,-2.46275 0.51414,-4.90626 0.77997,-7.36013 0.18645,-3.23116 0.14732,-6.46334 0.12668,-9.69897 -0.002,-3.70639 0.0118,-7.41278 0.004,-11.11918 -0.0135,-3.9373 -0.009,-7.87457 0.0203,-11.8118 0.006,-3.46572 0.0132,-6.93151 -0.0196,-10.39713 -0.062,-3.956911 -0.12759,-7.92918 -0.69696,-11.852448 -0.75986,-3.753996 -1.81789,-7.452709 -3.03118,-11.083597 -1.31808,-3.588856 -3.0341,-6.99353 -4.61902,-10.469726 0,0 -3.40547,1.982073 -3.40547,1.982073 z" />
      <path
         style="fill:#000000;fill-opacity:1;fill-rule:nonzero;stroke:none;stroke-width:0.264583"
         id="path5606"
         d="m 66.140726,105.09247 c 1.165654,3.70972 2.305055,7.42745 3.289355,11.19001 0.75278,3.01767 1.23162,6.08948 1.415699,9.192 0.09575,2.24936 0.07198,4.50146 0.06952,6.75223 -0.0074,2.42858 -0.01804,4.85715 -0.019,7.28574 0.08239,2.11842 0.01212,4.18869 -0.432932,6.26083 -0.500412,2.24835 -0.731846,4.5415 -1.070602,6.81628 -0.463323,1.69854 -0.921954,3.43185 -1.567265,5.07336 -0.469326,0.673 -0.233204,0.33864 -0.708313,1.00311 0,0 3.612319,-1.57286 3.612319,-1.57286 v 0 c 0.468029,-0.69746 0.245734,-0.33386 0.663937,-1.0926 0.576001,-1.67913 1.108162,-3.38923 1.484744,-5.12321 0.331282,-2.2761 0.576241,-4.56633 1.106736,-6.80916 0.413332,-2.09291 0.430813,-4.18813 0.371208,-6.31809 0.0049,-2.42808 0.005,-4.85618 0.01786,-7.28424 0.01254,-2.25901 0.04347,-4.52098 -0.07834,-6.77762 -0.221916,-3.11416 -0.766934,-6.18312 -1.541206,-9.20917 -1.002091,-3.76078 -2.143014,-7.48122 -3.143149,-11.24213 0,0 -3.470563,1.85552 -3.470563,1.85552 z" />
      <path
         style="fill:#000000;fill-opacity:1;fill-rule:nonzero;stroke:none;stroke-width:0.264583"
         id="path5608"
         d="m 68.304978,154.45869 c -0.919909,1.27531 -2.056456,2.25922 -3.423132,3.01947 5.127136,-3.0091 2.614372,-1.37602 1.209607,-1.19239 -0.800807,0.10467 -1.439204,-0.0803 -2.163496,-0.38467 -1.902179,-1.17978 -2.662467,-3.43942 -3.423295,-5.43173 -0.91317,-2.92235 -1.199229,-5.91648 -0.706731,-8.93238 0.193556,-0.8637 0.584565,-1.63817 1.268616,-2.21952 0.194125,-0.16498 0.857475,-0.5503 0.638836,-0.41954 -3.007558,1.79872 -3.558672,1.92333 -1.877213,1.35499 1.379916,-0.27924 3.163411,-0.48045 4.376528,0.44678 0.257599,0.1969 0.445141,0.47154 0.667711,0.7073 1.18973,1.7299 1.73946,3.65444 2.04017,5.70262 0.177538,1.58164 0.379788,3.18845 -0.31029,4.66835 -0.460312,0.55062 -0.201652,0.3159 -0.769041,0.71173 0,0 3.661072,-1.48097 3.661072,-1.48097 v 0 c 0.513154,-0.51915 0.282575,-0.22804 0.68213,-0.88085 0.558371,-1.57232 0.409929,-3.21358 0.187677,-4.84378 -0.340553,-2.11967 -0.930833,-4.10294 -2.15796,-5.89901 -0.242306,-0.27393 -0.446633,-0.58686 -0.726917,-0.82179 -1.227978,-1.02923 -3.078554,-0.92507 -4.547579,-0.70818 -2.206212,0.59809 -1.024146,0.21016 -4.873677,2.49131 -1.030761,0.6108 -1.510552,1.79362 -1.744906,2.9018 -0.41425,3.07615 -0.07458,6.1225 0.816012,9.09885 0.796274,2.09485 1.584915,4.41811 3.524297,5.72726 3.128,1.50147 4.921645,-0.4024 7.890984,-2.00541 1.340519,-0.83154 2.421646,-1.90081 3.414757,-3.12384 0,0 -3.65416,1.5136 -3.65416,1.5136 z" />
      <path
         style="fill:#000000;fill-opacity:1;fill-rule:nonzero;stroke:none;stroke-width:0.264583"
         id="path5610"
         d="m 58.473823,156.86286 c 0.764956,2.04602 1.980819,3.82019 3.346538,5.50187 1.786718,1.83983 4.219924,2.43699 6.670455,2.78895 3.050447,0.29449 6.11881,0.165 9.176499,0.28806 3.176973,0.35471 6.355281,0.65922 9.548381,0.82457 3.337573,0.17109 6.680451,0.15451 10.021252,0.16324 2.991762,0.007 5.983462,0.0168 8.975242,0.009 2.37237,0.004 4.74473,0.006 7.1171,0.008 2.90836,-0.0291 5.81817,0.0654 8.72077,-0.136 2.82565,-0.27739 5.63645,-0.66829 8.4485,-1.05431 1.56824,-0.24406 3.12063,-0.62014 4.57303,-1.26482 0,0 3.06853,-2.44721 3.06853,-2.44721 v 0 c -1.41215,0.73592 -2.97257,1.10195 -4.53287,1.38778 -2.82175,0.38989 -5.63876,0.80191 -8.47249,1.10115 -2.87885,0.24152 -5.76684,0.0994 -8.65386,0.12357 -2.382,0.003 -4.764,0.006 -7.146,0.013 -3.00189,-0.004 -6.00369,0.0159 -9.00558,0.0147 -3.33332,-0.007 -6.667734,-0.0196 -9.998777,-0.15658 -3.189206,-0.15971 -6.365534,-0.44088 -9.534083,-0.839 -3.044397,-0.13422 -6.098636,0.008 -9.137452,-0.27172 -2.365557,-0.30343 -4.751964,-0.79789 -6.499936,-2.55295 -1.338014,-1.61488 -2.548967,-3.33154 -3.185721,-5.35736 0,0 -3.499528,1.85652 -3.499528,1.85652 z" />
      <path
         style="fill:#000000;fill-opacity:1;fill-rule:nonzero;stroke:none;stroke-width:0.264583"
         id="path5612"
         d="m 81.082072,88.583829 c -0.1319,2.613152 -0.601231,5.195372 -1.095489,7.761719 -0.413723,2.941667 -1.269603,5.779302 -2.017866,8.644192 -0.515911,1.91823 -1.275477,3.78857 -2.28228,5.50432 -0.948444,1.46346 -0.522091,0.75817 -1.292719,2.10756 0,0 3.55714,-1.58642 3.55714,-1.58642 v 0 c 1.392528,-2.45653 2.891885,-4.87936 3.493299,-7.68498 0.762407,-2.87053 1.584354,-5.726385 2.014831,-8.673042 0.480269,-2.592228 0.915644,-5.194699 1.172345,-7.818802 0,0 -3.549261,1.745453 -3.549261,1.745453 z" />
      <path
         style="fill:#000000;fill-opacity:1;fill-rule:nonzero;stroke:none;stroke-width:0.264583"
         id="path5620"
         d="m 82.243204,90.776905 c 0.111188,2.013852 -0.128349,4.048016 0.162465,6.046137 0.324815,1.609291 0.738248,3.198258 1.078658,4.803948 0.577099,1.77658 0.966597,3.59536 1.78503,5.28267 0.530355,1.15451 1.068946,2.24587 2.091635,3.03155 1.077883,0.71476 2.323589,1.14302 3.533886,1.58054 2.140566,0.55062 3.128764,-0.66535 5.257871,-2.17894 0.360368,-0.25619 0.671523,-1.9156 0.76236,-2.3428 0.219064,-1.46059 0.507643,-2.82662 -0.704289,-3.90093 -0.434991,-0.18338 -0.242755,-0.12572 -0.566261,-0.2046 0,0 -3.191661,2.3857 -3.191661,2.3857 v 0 c 0.194458,-0.14783 0.06809,-0.0912 0.408458,-0.0756 1.137502,0.77996 0.693317,2.33573 0.522322,3.49543 -0.133345,0.53815 -0.219112,1.02801 -0.482261,1.52455 -0.110249,0.20803 -0.628513,0.66103 -0.409033,0.57581 1.023885,-0.39749 1.939671,-1.03103 2.909507,-1.54654 -0.188921,0.0633 -0.367837,0.17871 -0.566762,0.18979 -0.23228,0.0129 -0.458358,-0.08 -0.687535,-0.11995 -1.181352,-0.40977 -2.379007,-0.85387 -3.451156,-1.49892 -1.015654,-0.69384 -1.490295,-1.77357 -2.020285,-2.85107 -0.8167,-1.65277 -1.195583,-3.44755 -1.734685,-5.201969 -0.351144,-1.593038 -0.747876,-3.175677 -1.076872,-4.773599 -0.280557,-1.988479 -0.06776,-4.014203 -0.09685,-6.017059 0,0 -3.524538,1.795841 -3.524538,1.795841 z" />
      <path
         style="fill:#000000;fill-opacity:1;fill-rule:nonzero;stroke:none;stroke-width:0.264583"
         id="path5624"
         d="m 75.355169,98.898896 c 0.45294,1.435744 0.802793,2.897834 1.732811,4.107114 1.312844,1.01642 2.936079,1.10883 4.512906,0.85552 1.278797,-0.19179 2.480132,-0.60512 3.650408,-1.1387 1.274556,-0.73297 2.549112,-1.46594 3.823671,-2.19891 0.138885,-0.0821 0.555993,-0.32764 0.416655,-0.2463 -0.989764,0.57776 -1.99001,1.13803 -2.96795,1.73559 -0.131493,0.0803 0.280501,-0.12839 0.425056,-0.18178 0.380235,-0.14044 0.519472,-0.15606 0.916405,-0.24248 0.683977,-0.14167 1.263621,-0.15452 1.670127,0.45786 0,0 3.421052,-1.99979 3.421052,-1.99979 v 0 c -0.469374,-0.730273 -1.058249,-1.009326 -1.936816,-0.839604 -0.44836,0.06956 -1.000361,0.11525 -1.407909,0.335995 -1.282639,0.694719 -2.540651,1.433989 -3.808492,2.155359 -0.139618,0.0794 -0.553765,0.32583 -0.41379,0.24702 0.986264,-0.55528 1.968511,-1.11766 2.952766,-1.67649 -1.16832,0.52893 -2.322589,1.05398 -3.610798,1.23024 -1.560298,0.3208 -2.850631,0.35912 -4.260897,-0.51268 -0.938191,-1.148891 -1.241274,-2.598686 -1.646518,-3.998322 0,0 -3.468687,1.910358 -3.468687,1.910358 z" />
      <path
         style="fill:#000000;fill-opacity:1;fill-rule:nonzero;stroke:none;stroke-width:0.264583"
         id="path5626"
         d="m 98.576322,110.09868 c 1.516798,-0.0163 3.033748,-0.01 4.550608,-0.007 1.89607,0.0841 3.76902,-0.17787 5.63628,-0.46776 2.259,-0.36849 4.54249,-0.50898 6.82711,-0.58295 2.10389,-0.0517 4.20854,-0.0523 6.31292,-0.0476 0,0 3.15954,-2.29538 3.15954,-2.29538 v 0 c -2.11244,0.003 -4.22532,-0.005 -6.33723,0.0503 -2.29126,0.0673 -4.58164,0.1768 -6.84913,0.53888 -1.84425,0.29247 -3.69431,0.58935 -5.56907,0.4938 -1.51026,0.003 -3.02061,0.009 -4.53081,-0.007 0,0 -3.200218,2.3251 -3.200218,2.3251 z" />
      <path
         style="fill:#000000;fill-opacity:1;fill-rule:nonzero;stroke:none;stroke-width:0.264583"
         id="path5628"
         d="m 79.162292,119.21898 c 3.530883,-0.92263 7.106492,-1.64121 10.708704,-2.21741 4.109495,-0.6208 8.262561,-0.83288 12.412354,-0.93961 3.23436,-0.15366 6.45846,0.10451 9.675,0.41253 3.02186,0.26902 6.04742,0.4876 9.07915,0.60101 1.0474,0.0389 0.58363,0.0439 1.39134,0.0124 0,0 3.17232,-2.35244 3.17232,-2.35244 v 0 c -0.81082,0.12705 -0.34187,0.0839 -1.41128,0.0654 -3.04364,-0.0845 -6.08423,-0.26157 -9.11621,-0.54424 -3.22298,-0.3137 -6.45404,-0.64093 -9.69703,-0.45538 -4.17463,0.1283 -8.353965,0.32403 -12.490505,0.93797 -3.560128,0.53619 -7.085886,1.24515 -10.587805,2.08182 0,0 -3.136038,2.39799 -3.136038,2.39799 z" />
      <path
         style="fill:#000000;fill-opacity:1;fill-rule:nonzero;stroke:none;stroke-width:0.264583"
         id="path5630"
         d="m 79.200149,125.81212 c 3.060435,-0.0389 6.121313,-0.0319 9.181954,-0.0322 3.323921,0.008 6.647823,-0.002 9.971741,7e-5 3.169456,0.0111 6.338926,5e-5 9.508396,0.003 2.91688,0.007 5.83379,0.007 8.75069,0.004 2.18988,0.008 4.37988,0.003 6.56972,0.0206 0.16062,0.002 0.32124,0.005 0.48185,0.007 0,0 3.19719,-2.32289 3.19719,-2.32289 v 0 c -0.16749,0.002 -0.33497,0.005 -0.50246,0.007 -2.20872,0.0177 -4.4176,0.0131 -6.62637,0.0206 -2.92064,-0.002 -5.8413,-0.003 -8.76193,0.004 -3.17187,0.003 -6.34373,-0.008 -9.5156,0.003 -3.323984,0.002 -6.647953,-0.008 -9.971942,7e-5 -3.031075,-2.6e-4 -6.062401,0.007 -9.093261,-0.0322 0,0 -3.189978,2.31765 -3.189978,2.31765 z" />
      <path
         style="fill:#000000;fill-opacity:1;fill-rule:nonzero;stroke:none;stroke-width:0.264583"
         id="path5632"
         d="m 81.233258,135.57131 c 3.495092,-0.0404 6.98918,-0.0218 10.48322,-0.12384 4.915347,-0.21656 9.837852,-0.23781 14.752512,-0.46044 3.34614,-0.21033 6.69337,-0.38779 10.04523,-0.46907 2.96436,-0.0631 5.92965,-0.0653 8.89455,-0.0597 1.214,0.01 0.67636,-0.0254 1.61493,0.0682 0,0 3.20981,-2.28168 3.20981,-2.28168 v 0 c -1.00027,-0.10773 -0.43701,-0.0725 -1.69192,-0.063 -2.97256,0.009 -5.94524,0.0127 -8.91746,0.0646 -3.36815,0.0888 -6.73204,0.24715 -10.09283,0.49241 -4.92599,0.26561 -9.863752,0.29527 -14.792696,0.50156 -3.434744,0.0681 -6.870017,0.0536 -10.305132,0.006 0,0 -3.200214,2.32509 -3.200214,2.32509 z" />
      <path
         style="fill:#000000;fill-opacity:1;fill-rule:nonzero;stroke:none;stroke-width:0.264583"
         id="path5634"
         d="m 83.959948,145.82638 c 2.589514,-0.3479 5.209246,-0.40202 7.817974,-0.46962 3.304172,-0.07 6.609323,-0.0583 9.914038,-0.0648 3.34341,0.0404 6.68254,-0.005 10.02237,-0.1583 4.04745,-0.20209 8.09877,-0.29947 12.15067,-0.34562 0.45691,-0.003 0.91382,-0.007 1.37072,-0.01 0,0 3.12413,-2.27574 3.12413,-2.27574 v 0 c -0.46419,0.008 -0.92838,0.0162 -1.39257,0.0243 -4.06278,0.0809 -8.12556,0.17103 -12.18517,0.35724 -3.32545,0.14264 -6.64798,0.17968 -9.97657,0.1455 -3.30927,-8e-4 -6.618391,0.0243 -9.927416,0.0643 -2.585773,0.0493 -5.176504,0.10917 -7.751635,0.36272 0,0 -3.166541,2.36999 -3.166541,2.36999 z" />
      <g
         id="g441"
         transform="matrix(0.55829612,0.0159976,-0.0665281,0.61813937,81.188558,-33.047027)"
         style="fill:#000000">
        <path
           style="fill:#000000;stroke-width:0.264583"
           id="path77"
           d="m 96.401831,268.77245 c 3.571062,-1.85745 5.129519,-2.85721 7.066239,-6.06483 1.04789,-2.06172 1.78349,-4.2398 2.46277,-6.44364 1.06298,-3.14344 2.06273,-6.31411 2.99156,-9.50023 0.77281,-2.88913 1.35351,-5.82127 1.94367,-8.75114 0.65369,-2.51295 1.65243,-4.92095 2.76916,-7.25962 1.22166,-2.54127 2.36989,-5.11469 3.64878,-7.62799 1.63346,-2.441 3.0801,-5.00442 4.77414,-7.40346 1.90237,-2.65209 4.53411,-4.61397 7.07723,-6.60428 1.22561,-0.86701 1.42982,-1.04621 2.6875,-1.80524 0.45009,-0.27163 1.78924,-1.09937 1.36775,-0.78519 -0.57668,0.42985 -1.36981,0.58609 -1.83574,1.13403 -0.33422,0.39305 0.93819,-0.42973 1.41149,-0.63509 0.49964,-0.2168 1.00472,-0.42085 1.50709,-0.63127 3.53573,-1.59304 7.17151,-2.93514 10.88087,-4.0593 3.67676,-1.23914 7.50247,-1.81203 11.35372,-2.1296 3.01399,-0.20478 6.0363,-0.19683 9.05551,-0.20035 2.73266,0.0435 5.4704,-0.0684 8.20002,0.0856 1.97233,-0.01 3.38956,0.9604 4.80756,2.20468 1.56459,1.41346 2.69147,3.21581 3.71955,5.03643 1.18565,2.06186 1.82724,4.27173 2.16882,6.60707 0.2846,2.43487 0.27698,4.89048 0.27861,7.33812 10e-4,2.04796 -0.0208,4.09581 -0.0301,6.14374 -0.0462,1.50993 -0.77748,2.80297 -1.53288,4.06473 -0.8924,1.36316 -1.02143,3.03373 -1.66121,4.49298 -0.2285,0.54115 -0.50602,1.06307 -0.98765,1.42196 -0.1295,0.0965 -0.55737,0.32654 -0.41949,0.24244 2.99582,-1.82739 3.96372,-2.04553 2.33029,-1.58848 -1.31592,0.23392 -2.65996,0.20318 -3.99137,0.20337 0,0 -3.172,2.3029 -3.172,2.3029 v 0 c 1.34548,0.01 2.69576,0.0235 4.03525,-0.1234 2.4321,-0.44757 4.82726,-1.80561 5.75785,-4.10207 0.5409,-1.48828 0.79324,-3.09483 1.68753,-4.44179 0.74847,-1.32314 1.44015,-2.67667 1.42476,-4.24001 0.002,-2.04401 5.3e-4,-4.08806 0.001,-6.13204 -0.0172,-2.4631 -0.0123,-4.93649 -0.31005,-7.38513 -0.37276,-2.40915 -1.00768,-4.59851 -2.23291,-6.7294 -1.02305,-1.87078 -2.18827,-3.70325 -3.76532,-5.16002 -1.44403,-1.31242 -2.91946,-2.41019 -4.96765,-2.41008 -2.74149,-0.16796 -5.49429,-0.0224 -8.23953,-0.0848 -3.03635,-0.005 -6.07448,0.007 -9.10611,0.19871 -3.87435,0.31395 -7.73549,0.84181 -11.43518,2.092 -3.70214,1.09751 -7.33809,2.402 -10.85944,3.99361 -0.35638,0.14653 -2.57033,1.04573 -2.93708,1.23958 -2.99583,1.58343 -5.99864,3.22503 -8.72263,5.25405 -2.55735,2.00515 -5.16616,4.01911 -7.04544,6.71347 -1.67694,2.42772 -3.18832,4.9687 -4.76834,7.46006 -1.26912,2.52559 -2.42557,5.10411 -3.6608,7.64634 -1.08814,2.37359 -2.11822,4.78659 -2.71693,7.33728 -0.5772,2.91843 -1.15803,5.83534 -1.93443,8.70958 -0.93537,3.18698 -1.91661,6.36516 -3.01166,9.50091 -0.7038,2.18321 -1.46799,4.34818 -2.551724,6.3777 -0.54674,0.85178 -1.117555,1.70924 -1.826083,2.43965 -0.990732,1.02131 -4.010461,2.78844 1.396352,-0.40924 0,0 -3.083774,2.46674 -3.083774,2.46674 z" />
        <path
           style="fill:#000000;stroke-width:0.264583"
           id="path117"
           d="m 111.22359,234.4972 c -0.0566,-2.47586 -0.0509,-4.95304 -0.051,-7.42949 0.0465,-1.42183 -0.0792,-2.85355 0.0652,-4.2727 0.1429,-1.40424 0.55878,-2.76767 0.9327,-4.12186 0.83953,-2.06231 1.94728,-4.01992 3.5245,-5.6001 2.38638,-1.72048 4.7647,-3.42849 7.28264,-4.95385 -0.63012,0.38656 -1.38455,0.62055 -1.89035,1.15967 -0.34483,0.36754 0.91526,-0.42281 1.3806,-0.61634 1.92604,-0.80102 3.90313,-1.5168 5.86373,-2.22826 2.5956,-0.90304 5.27456,-1.45443 7.9997,-1.75979 1.71117,-0.11624 3.4225,-0.2349 5.10758,-0.56767 1.08891,-0.30906 2.19165,-0.5242 3.31767,-0.63064 1.53905,-0.0957 3.08241,-0.0883 4.62379,-0.0924 1.94478,-0.006 3.88957,2.6e-4 5.83436,0.002 2.16477,-0.0447 4.31927,-0.0224 6.46481,0.28552 2.09314,0.33785 3.7803,1.67792 5.52047,2.79608 1.51329,1.01566 3.14953,1.85871 4.52151,3.07321 0.88143,0.78026 1.10452,1.09645 1.87333,1.98286 0.9104,1.34213 1.88633,2.67489 2.53103,4.1742 0.22687,0.52759 0.50637,1.45013 0.67945,1.9925 0.68081,2.28528 0.75987,4.67651 0.83244,7.04221 0.006,2.76371 0.19863,5.54496 -0.0975,8.29723 -0.25662,2.10907 -0.72505,4.17456 -1.42725,6.17804 0,0 3.5204,-1.64955 3.5204,-1.64955 v 0 c 0.68031,-2.02588 1.11353,-4.11456 1.34979,-6.23966 0.25785,-2.77228 0.0627,-5.56413 0.0782,-8.34522 -0.09,-2.4013 -0.14342,-4.83249 -0.8605,-7.14782 -0.1927,-0.60053 -0.45332,-1.46821 -0.71007,-2.0465 -0.67402,-1.51815 -1.68807,-2.86719 -2.60897,-4.237 -0.74438,-0.86436 -1.05339,-1.27961 -1.90644,-2.04373 -1.37287,-1.22976 -3.01866,-2.07681 -4.52853,-3.11599 -1.76804,-1.1521 -3.47169,-2.54882 -5.59624,-2.94277 -2.15022,-0.34239 -4.31726,-0.37633 -6.49149,-0.33784 -1.94196,-0.001 -3.88392,-8e-4 -5.82587,-0.009 -1.53837,-0.002 -3.07739,-0.0122 -4.61491,0.0485 -1.14102,0.0701 -2.26608,0.24509 -3.35929,0.5912 -1.67553,0.42558 -3.41777,0.50464 -5.13464,0.64275 -2.75055,0.29507 -5.4576,0.81058 -8.08219,1.70921 -4.13354,1.4653 -8.24552,2.96698 -11.93022,5.41371 -2.52059,1.55306 -4.94516,3.25049 -7.28618,5.06272 -1.52568,1.66383 -2.67,3.63408 -3.42239,5.76545 -0.21205,0.80704 -0.52233,1.93225 -0.67372,2.74493 -0.35317,1.89584 -0.27497,3.81829 -0.27166,5.73631 -1.3e-4,2.49379 0.005,4.98829 -0.051,7.48151 0,0 3.51658,-1.79179 3.51658,-1.79179 z" />
        <path
           style="fill:#000000;stroke-width:0.264583"
           id="path232"
           d="m 114.10614,224.77289 c 0.92165,-2.35145 1.8142,-4.69298 2.99182,-6.93154 1.82117,-3.18162 4.12702,-6.03362 6.33461,-8.94648 0,0 -3.45893,1.48878 -3.45893,1.48878 v 0 c -2.21866,2.93499 -4.5592,5.79604 -6.35289,9.02402 -1.17918,2.2875 -2.09557,4.67548 -3.09166,7.04514 0,0 3.57705,-1.67992 3.57705,-1.67992 z" />
        <path
           style="fill:#000000;stroke-width:0.264583"
           id="path355"
           d="m 169.3844,202.34006 c 1.59611,0.7271 3.1497,1.54028 4.76694,2.22035 1.06631,0.47847 2.17792,0.85189 2.71011,1.95719 0.47183,0.91888 0.62466,1.93164 0.71841,2.94696 0.16778,1.00152 0.49752,1.95521 0.78078,2.92618 0.40473,0.85259 0.67605,1.75405 0.97375,2.64704 0.3405,1.14582 1.08378,2.13569 1.67378,3.1712 0.63086,1.1473 0.74243,2.44703 0.99067,3.70483 0.28918,1.3046 0.41492,2.63209 0.48305,3.96378 0.0579,1.58757 0.0548,3.1767 0.0507,4.7651 -0.001,0.23468 -0.002,0.46937 -0.003,0.70405 0,0 3.49066,-1.77829 3.49066,-1.77829 v 0 c -7.9e-4,-0.23402 -0.001,-0.46803 -0.002,-0.70205 -0.006,-1.59432 -0.006,-3.18891 -0.0583,-4.78259 -0.0638,-1.35085 -0.21025,-2.69223 -0.5011,-4.01524 -0.23575,-1.30512 -0.40968,-2.63296 -1.04839,-3.82101 -0.57621,-1.01494 -1.30327,-1.98208 -1.62437,-3.11044 -0.29472,-0.88931 -0.55948,-1.78871 -0.96682,-2.63548 -0.28186,-0.94617 -0.59221,-1.88025 -0.74935,-2.85872 -0.11054,-1.06026 -0.29246,-2.11357 -0.77854,-3.0755 -0.60445,-1.20554 -1.69657,-1.67694 -2.90488,-2.17023 -1.60514,-0.64267 -3.12378,-1.45856 -4.68109,-2.20594 0,0 -3.3211,2.14881 -3.3211,2.14881 z" />
      </g>
    </g>
  </g>
</svg>
